<?xml version="1.0" encoding="UTF-8"?>
<svg xmlns="http://www.w3.org/2000/svg" viewBox="0 0 305.24 212.01">
  <defs>
    <style>
      .cls-1 {
        fill: #ff9d00;
      }

      .cls-2 {
        fill: #4a7fff;
      }

      .cls-3 {
        fill: #009300;
      }

      .cls-4 {
        fill: #007ac5;
      }

      .cls-5 {
        fill: #ffe500;
      }

      .cls-6 {
        fill: #00a000;
      }

      .cls-7 {
        fill: #29d601;
      }

      .cls-8 {
        fill: #004c7b;
      }

      .cls-9 {
        fill: #0b0;
      }

      .cls-10 {
        fill: #ffcd00;
      }

      .cls-11 {
        fill: #004e8d;
      }

      .cls-12 {
        fill: #ffa800;
      }
    </style>
  </defs>
  <g>
    <polygon class="cls-3" points="112.5 117.61 141.64 85.86 79.78 85.86 112.5 117.61"/>
    <polygon class="cls-6" points="232.13 134.26 129.29 134.26 112.18 117.61 141.33 85.86 263.15 85.86 263.15 103.82 232.13 134.26"/>
    <polygon class="cls-7" points="125.25 129.83 125.25 212 305.24 40.5 263.15 0 125.25 129.83"/>
    <polygon class="cls-9" points="125.25 129.05 125.25 211.66 79.98 170.36 79.98 86.01 125.25 129.05"/>
    <polygon class="cls-1" points="71.5 117.61 100.64 85.86 38.78 85.86 71.5 117.61"/>
    <polygon class="cls-12" points="191.13 134.26 88.29 134.26 71.18 117.61 100.33 85.86 222.15 85.86 222.15 103.82 191.13 134.26"/>
    <polygon class="cls-5" points="84.25 129.83 84.25 212 264.24 40.5 222.15 0 84.25 129.83"/>
    <polygon class="cls-10" points="84.25 129.05 84.25 211.66 38.98 170.36 38.98 86.01 84.25 129.05"/>
    <polygon class="cls-8" points="32.72 117.62 61.86 85.88 0 85.88 32.72 117.62"/>
    <polygon class="cls-11" points="152.35 134.27 49.5 134.27 32.4 117.62 61.54 85.88 183.37 85.88 183.37 103.83 152.35 134.27"/>
    <polygon class="cls-2" points="45.46 129.84 45.46 212.01 225.46 40.52 183.37 .01 45.46 129.84"/>
    <polygon class="cls-4" points="45.46 129.07 45.46 211.67 .19 170.37 .19 86.03 45.46 129.07"/>
  </g>
</svg>